<svg xmlns="http://www.w3.org/2000/svg" height="24px" viewBox="0 0 24 24" width="24px" fill="#00cba9">
    <defs>
		<linearGradient id="gradient" x1="0%" y1="0%" x2="100%" y2="100%">
		  <stop offset="0%"   stop-color="#00cba9"/>
		  <stop offset="100%" stop-color="#007e69"/>
		</linearGradient>
	  </defs><path d="M0 0h24v24H0V0z" fill="none"/><path style="fill:url(#gradient);" d="M11 7h2v2h-2zm0 4h2v6h-2zm1-9C6.48 2 2 6.48 2 12s4.48 10 10 10 10-4.48 10-10S17.52 2 12 2zm0 18c-4.41 0-8-3.59-8-8s3.59-8 8-8 8 3.59 8 8-3.59 8-8 8z"/></svg>